<?xml version="1.0" encoding="UTF-8"?>
<svg id="Layer_1" data-name="Layer 1" xmlns="http://www.w3.org/2000/svg" viewBox="0 0 422.13 422.13">
  <defs>
    <style>
      .cls-1 {
        fill: #fff;
      }
    </style>
  </defs>
  <path class="cls-1" d="M0,421.92V0h422.13v422.13H0v-.21ZM211.43,193.63l16.38-9.21,59.55-33.05,53.06-29.65,35.31-19.62-55.08-29.12-80.28-42.26-28.95-15.23-8.87,4.72L47.01,102.09l18.21,10.13,62.67,34.93,22.14,12.23,46.11,25.73,15.28,8.53ZM207.54,287.26l.05-86.91c-3.94-2.63-7.71-4.49-11.74-6.74l-39.28-21.92-52.63-29.28-61.66-34.16-.04,106.72.08,98.84,27.55,15.37,72.5,40.74,65.19,36.59-.02-119.24ZM252.33,303.74l89.33-50.23,29.77-16.75c3.02-1.7,5.64-3.4,8.96-4.86l.1-41.82c-5.74,2.81-10.84,5.92-16.32,9.01l-28.11,15.83-37.81,21.09-46.13,25.83-.04-40.14,29.7-16.59,35.83-20.11,24.26-13.65,38.56-21.59-.09-41.55-23.38,12.79-52.32,29.17-38.94,21.63-24.54,13.71-26.15,14.76v201.93c0,1.68-.02,2.89.46,4.31l99.06-55.75,65.85-37.02.04-34.5c0-2.32.03-4.32-.38-6.73l-25.18,13.99-22.22,12.43-71.57,40.18c-2.9,1.85-5.55,3.29-8.76,4.88v-40.28ZM347.89,200.47l26.17-14.81-21.59-12.22-26.12,14.62,21.53,12.41ZM374.11,267.78l-21.59-12.06c-2.55.88-4.46,2.36-6.77,3.53l-19.13,10.96,21.37,12.13,26.12-14.55Z"/>
  <path class="cls-1" d="M207.54,287.26l.02,119.24-65.19-36.59-72.5-40.74-27.55-15.37-.08-98.84.04-106.72,61.66,34.16,52.63,29.28,39.28,21.92c4.03,2.25,7.8,4.11,11.74,6.74l-.05,86.91Z"/>
  <polygon class="cls-1" points="211.43 193.63 196.15 185.11 150.04 159.37 127.9 147.14 65.23 112.22 47.01 102.09 202.54 20.22 211.41 15.5 240.36 30.73 320.64 72.99 375.72 102.11 340.41 121.72 287.35 151.37 227.81 184.42 211.43 193.63"/>
  <path class="cls-1" d="M252.33,303.74v40.28c3.2-1.6,5.85-3.03,8.75-4.88l71.57-40.18,22.22-12.43,25.18-13.99c.41,2.41.38,4.41.38,6.73l-.04,34.5-65.85,37.02-99.06,55.75c-.48-1.42-.46-2.63-.46-4.31v-201.93s26.15-14.76,26.15-14.76l24.54-13.71,38.94-21.63,52.32-29.17,23.38-12.79.09,41.55-38.56,21.59-24.26,13.65-35.83,20.11-29.7,16.59.04,40.14,46.13-25.83,37.81-21.09,28.11-15.83c5.48-3.09,10.58-6.2,16.32-9.01l-.1,41.82c-3.32,1.46-5.94,3.16-8.96,4.86l-29.77,16.75-89.33,50.23Z"/>
  <polygon class="cls-1" points="347.89 200.47 326.36 188.05 352.48 173.44 374.07 185.66 347.89 200.47"/>
  <path class="cls-1" d="M374.11,267.78l-26.12,14.55-21.37-12.13,19.13-10.96c2.31-1.17,4.22-2.64,6.77-3.53l21.59,12.06Z"/>
</svg>