<?xml version="1.0" encoding="utf-8"?>
<!-- Generator: Adobe Illustrator 27.5.0, SVG Export Plug-In . SVG Version: 6.00 Build 0)  -->
<svg version="1.1" id="Layer_1" xmlns="http://www.w3.org/2000/svg" xmlns:xlink="http://www.w3.org/1999/xlink" x="0px" y="0px"
	 viewBox="0 0 340.2 102" style="enable-background:new 0 0 340.2 102;" xml:space="preserve" fill="#FFFFFF">
<style type="text/css">
	.Arched_x0020_Green{fill:url(#SVGID_1_);stroke:#FFFFFF;stroke-width:0.25;stroke-miterlimit:1;}
	.st0{fill:none;stroke:#FFFFFF;stroke-width:2;}
	.st1{fill-rule:evenodd;clip-rule:evenodd;fill:#FFFFFF;}
</style>
<linearGradient id="SVGID_1_" gradientUnits="userSpaceOnUse" x1="-116.544" y1="576.7519" x2="-115.8369" y2="576.0448">
	<stop  offset="0" style="stop-color:#13A14A"/>
	<stop  offset="0.9831" style="stop-color:#162C1B"/>
</linearGradient>
<g>
	<g>
		<path fill="none" d="M4.3,97.5c0,0.5,0.4,0.9,0.9,0.9h92.3c0.5,0,0.9-0.4,0.9-0.9V5.2c0-0.5-0.4-0.9-0.9-0.9H5.2c-0.5,0-0.9,0.4-0.9,0.9V97.5z
			"/>
		<path class="st0" d="M4.3,97.5c0,0.5,0.4,0.9,0.9,0.9h92.3c0.5,0,0.9-0.4,0.9-0.9V5.2c0-0.5-0.4-0.9-0.9-0.9H5.2
			c-0.5,0-0.9,0.4-0.9,0.9V97.5z"/>
	</g>
	<path class="st1" d="M98.4,14.7c0,4.8,0,8.7,0,13.3c-16.8,5.6-33.9,11-50.8,16.6c-1.9,0.6-3.8,1.2-5.4,2.1c-3.3,1.8-5.3,4.5-6,9.1
		c-0.7,4.5-0.4,10.1,2.3,12.1c3.2,2.4,10.4,1.1,12.8,0.8c0-6.4,0-11.6,0-17.9c15.6-4.1,31.5-8.4,47.1-12.4c0,4.9,0,8.6,0,15.1
		c-12.1,2-24.2,4.2-36.3,6.2c0,2.8,0.1,4.7,0.1,7.9c12.1-1.2,24.1-2.6,36.2-3.9c0,5.6,0,7.6,0,17.3c-12,0-24.6-0.1-36.8-0.1
		c-6.1,0-12.7,0.1-18.2-0.1c-5.6-0.2-9.2-3-11.5-6.8c-0.6,1-0.9,2.8-3.5,4.5c-1.4,0.9-2.1,1.3-4,1.6c-3.9,0.7-13.5,0.7-20.2,0.7
		c0-2.6,0-4.7,0-7.2c3.4-0.4,4.7-0.5,9.4-1c0-2.9,0-3.3,0-4.9c-3.2,0.5-6.2,1-9.5,1.5c0-2.7,0-3.5,0-6c4.5-1.4,9.8-2.7,14.4-4
		c0,4.6-0.1,6.4-0.1,13c3.6-0.3,4.8-0.4,6.4-1.2c4.2-2.1,4.5-6.9,4.5-12.2c0-3.2-0.6-6.2-3.3-6.6c-2-0.3-4.2,0.6-5.9,1.1
		c-2.2,0.7-11,3.5-16.1,5.2c0-2.8,0-3.3,0-5.3c6.2-2.4,13.6-5.7,20-8.2c3.1-1.2,7.2-0.8,8.8,1.7c2.8-5.2,7.8-8.5,13.5-10.8
		C63.8,29,81.4,21.6,98.4,14.7z"/>
</g>
<g>
	<path d="M116.1,5.4h18.8v4h-14.2v6.8h13.2v3.7h-13.2v7.6h14.5v4h-19.1V5.4z"/>
	<path d="M137.3,5.4h10.8c8,0,11.5,5.9,11.5,13.1s-3.5,13.1-11.5,13.1h-10.8V5.4z M141.9,27.8h4.5c7.2,0,8.7-4.1,8.7-9.3
		c0-5.2-1.5-9.3-8.7-9.3h-4.5V27.8z"/>
	<path d="M184.7,31.5h-2.9l-0.7-3.1c-2.5,2.8-4.7,3.7-7.9,3.7c-7.8,0-12.5-6.2-12.5-13.7c0-7.5,4.7-13.7,12.5-13.7
		c5.7,0,10.5,3,11.2,8.9h-4.5c-0.4-3.4-3.4-5.2-6.7-5.2c-5.6,0-7.9,4.9-7.9,10c0,5,2.3,10,7.9,10c4.7,0.1,7.2-2.7,7.3-7.2h-7v-3.5
		h11.1V31.5z"/>
	<path d="M187.8,5.4h18.8v4h-14.2v6.8h13.2v3.7h-13.2v7.6h14.5v4h-19.1V5.4z"/>
	<path d="M115.9,38.3h9c7.9,0.2,12,4.5,12,13.1c0,8.6-4.1,12.9-12,13.1h-9V38.3z M118.4,62.3h5.3c7.5,0,10.8-3.1,10.8-10.9
		c0-7.8-3.3-11-10.8-10.9h-5.3V62.3z"/>
	<path d="M139.2,38.3h18v2.1h-15.6v9.4h14.6V52h-14.6v10.3h15.7v2.1h-18.2V38.3z"/>
	<path d="M160.2,55.9c-0.1,5.4,3.8,7,8.5,7c2.7,0,6.9-1.5,6.9-5.3c0-3-3-4.1-5.4-4.7l-5.8-1.4c-3.1-0.8-5.9-2.2-5.9-6.3
		c0-2.6,1.6-7.4,9-7.4c5.2,0,9.7,2.8,9.7,8.1h-2.5c-0.1-4-3.4-6-7.1-6c-3.4,0-6.6,1.3-6.6,5.2c0,2.5,1.8,3.5,4,4l6.4,1.6
		c3.7,1,6.8,2.6,6.8,6.9c0,1.8-0.7,7.5-10,7.5c-6.2,0-10.7-2.8-10.4-9.1H160.2z"/>
	<path d="M180.4,38.3h2.5v26.1h-2.5V38.3z"/>
	<path d="M208.9,64.5h-1.8l-0.3-4.8h-0.1c-1.8,3.7-5.3,5.3-9,5.3c-8.2,0-12.3-6.5-12.3-13.6c0-7.1,4.1-13.6,12.3-13.6
		c5.5,0,10,3,10.9,8.7h-2.5c-0.3-3-3.4-6.6-8.4-6.6c-6.9,0-9.8,5.8-9.8,11.5c0,5.7,2.9,11.5,9.8,11.5c5.8,0,9.1-4.1,9-9.6h-8.9v-2.1
		h11.1V64.5z"/>
	<path d="M211.8,38.3h2.8l15.2,22.1h0.1V38.3h2.5v26.1h-2.8l-15.2-22.1h-0.1v22.1h-2.5V38.3z"/>
	<path d="M254.5,61.1c-1.9,2.4-4.6,4-7.7,4c-4.5,0-7.9-2.6-7.9-7.3c0-3.7,3.5-6.2,6.4-7.8c-1.4-1.9-3.2-3.8-3.2-6.3
		c0-3.2,2.6-5.3,5.8-5.3s5.8,2.1,5.8,5.3c0,3.3-2.5,5.1-5.1,6.8l5.7,6.9c0.6-1.3,0.8-2.4,0.8-4.4h2.3c0,1.5-0.3,4-1.5,6.3l4.4,5.3
		h-2.9L254.5,61.1z M246.5,51.4c-2.5,1.4-5.3,3.3-5.3,6.5c0,3.1,2.7,5.2,5.7,5.2c2.6,0,4.7-1.6,6.2-3.7L246.5,51.4z M244.4,43.6
		c0,1.8,1.8,3.9,2.9,5.3c1.8-1.1,4-2.7,4-5.3c0-2.2-1.6-3.4-3.5-3.4C246,40.3,244.4,41.5,244.4,43.6z"/>
	<path d="M113.1,71.3h20.7v2.1h-9.1v24h-2.5v-24h-9.1V71.3z"/>
	<path d="M134.5,71.3h18v2.1h-15.6v9.4h14.6V85h-14.6v10.3h15.7v2.1h-18.2V71.3z"/>
	<path d="M173.4,79.2c-0.9-4-4.2-6.3-8-6.3c-6.9,0-9.8,5.8-9.8,11.5c0,5.7,2.9,11.5,9.8,11.5c4.8,0,7.9-3.7,8.4-8.4h2.5
		c-0.7,6.4-4.8,10.5-10.9,10.5c-8.2,0-12.3-6.5-12.3-13.6c0-7.1,4.1-13.6,12.3-13.6c4.9,0,9.8,3,10.5,8.5H173.4z"/>
	<path d="M178.3,71.3h2.5v11.3h15.5V71.3h2.5v26.1h-2.5V84.7h-15.5v12.7h-2.5V71.3z"/>
	<path d="M202.1,71.3h2.8l15.2,22.1h0.1V71.3h2.5v26.1h-2.8l-15.2-22.1h-0.1v22.1h-2.5V71.3z"/>
	<path d="M237.1,70.7c8.2,0,12.3,6.5,12.3,13.6c0,7.1-4.1,13.6-12.3,13.6c-8.2,0-12.3-6.5-12.3-13.6
		C224.7,77.2,228.8,70.7,237.1,70.7z M237.1,95.8c6.9,0,9.8-5.8,9.8-11.5c0-5.7-2.9-11.5-9.8-11.5c-6.9,0-9.8,5.8-9.8,11.5
		C227.2,90,230.1,95.8,237.1,95.8z"/>
	<path d="M251.4,71.3h2.5v24h14.6v2.1h-17.1V71.3z"/>
	<path d="M280.2,70.7c8.2,0,12.3,6.5,12.3,13.6c0,7.1-4.1,13.6-12.3,13.6c-8.2,0-12.3-6.5-12.3-13.6
		C267.8,77.2,271.9,70.7,280.2,70.7z M280.2,95.8c6.9,0,9.8-5.8,9.8-11.5c0-5.7-2.9-11.5-9.8-11.5c-6.9,0-9.8,5.8-9.8,11.5
		C270.3,90,273.3,95.8,280.2,95.8z"/>
	<path d="M316.8,97.4H315l-0.3-4.8h-0.1c-1.8,3.7-5.3,5.3-9,5.3c-8.2,0-12.3-6.5-12.3-13.6c0-7.1,4.1-13.6,12.3-13.6
		c5.5,0,10,3,10.9,8.7H314c-0.3-3-3.4-6.5-8.4-6.5c-6.9,0-9.8,5.8-9.8,11.5c0,5.7,2.9,11.5,9.8,11.5c5.8,0,9.1-4.1,9-9.6h-8.9v-2.1
		h11.1V97.4z"/>
	<path d="M327.1,86.6l-10.3-15.4h3l8.6,13.2l8.6-13.2h3l-10.3,15.4v10.8h-2.5V86.6z"/>
</g>
</svg>
