<svg xmlns="http://www.w3.org/2000/svg" viewBox="0 0 102 102" fill="#FFFFFF" role="img" aria-label="EDGE"><style>.st0{fill:none;stroke:#FFFFFF;stroke-width:2;}.st1{fill-rule:evenodd;clip-rule:evenodd;fill:#FFFFFF;}</style><path class="st0" d="M4.3,97.5c0,0.5,0.4,0.9,0.9,0.9h92.3c0.5,0,0.9-0.4,0.9-0.9V5.2c0-0.5-0.4-0.9-0.9-0.9H5.2 c-0.5,0-0.9,0.4-0.9,0.9V97.5z"/><path class="st1" d="M98.4,14.7c0,4.8,0,8.7,0,13.3c-16.8,5.6-33.9,11-50.8,16.6c-1.9,0.6-3.8,1.2-5.4,2.1c-3.3,1.8-5.3,4.5-6,9.1 c-0.7,4.5-0.4,10.1,2.3,12.1c3.2,2.4,10.4,1.1,12.8,0.8c0-6.4,0-11.6,0-17.9c15.6-4.1,31.5-8.4,47.1-12.4c0,4.9,0,8.6,0,15.1 c-12.1,2-24.2,4.2-36.3,6.2c0,2.8,0.1,4.7,0.1,7.9c12.1-1.2,24.1-2.6,36.2-3.9c0,5.6,0,7.6,0,17.3c-12,0-24.6-0.1-36.8-0.1 c-6.1,0-12.7,0.1-18.2-0.1c-5.6-0.2-9.2-3-11.5-6.8c-0.6,1-0.9,2.8-3.5,4.5c-1.4,0.9-2.1,1.3-4,1.6c-3.9,0.7-13.5,0.7-20.2,0.7 c0-2.6,0-4.7,0-7.2c3.4-0.4,4.7-0.5,9.4-1c0-2.9,0-3.3,0-4.9c-3.2,0.5-6.2,1-9.5,1.5c0-2.7,0-3.5,0-6c4.5-1.4,9.8-2.7,14.4-4 c0,4.6-0.1,6.4-0.1,13c3.6-0.3,4.8-0.4,6.4-1.2c4.2-2.1,4.5-6.9,4.5-12.2c0-3.2-0.6-6.2-3.3-6.6c-2-0.3-4.2,0.6-5.9,1.1 c-2.2,0.7-11,3.5-16.1,5.2c0-2.8,0-3.3,0-5.3c6.2-2.4,13.6-5.7,20-8.2c3.1-1.2,7.2-0.8,8.8,1.7c2.8-5.2,7.8-8.5,13.5-10.8 C63.8,29,81.4,21.6,98.4,14.7z"/></svg>